<svg width="15" height="14" viewBox="0 0 15 14" fill="none" xmlns="http://www.w3.org/2000/svg">
<path d="M13.4536 6.16536H8.28348V1.16536C8.28348 0.944351 8.1927 0.732389 8.0311 0.576109C7.86951 0.419829 7.65034 0.332031 7.42181 0.332031C7.19327 0.332031 6.9741 0.419829 6.81251 0.576109C6.65091 0.732389 6.56013 0.944351 6.56013 1.16536V6.16536H1.39006C1.16153 6.16536 0.942357 6.25316 0.780761 6.40944C0.619165 6.56572 0.528381 6.77768 0.528381 6.9987C0.528381 7.21971 0.619165 7.43167 0.780761 7.58795C0.942357 7.74423 1.16153 7.83203 1.39006 7.83203H6.56013V12.832C6.56013 13.053 6.65091 13.265 6.81251 13.4213C6.9741 13.5776 7.19327 13.6654 7.42181 13.6654C7.65034 13.6654 7.86951 13.5776 8.0311 13.4213C8.1927 13.265 8.28348 13.053 8.28348 12.832V7.83203H13.4536C13.6821 7.83203 13.9013 7.74423 14.0629 7.58795C14.2244 7.43167 14.3152 7.21971 14.3152 6.9987C14.3152 6.77768 14.2244 6.56572 14.0629 6.40944C13.9013 6.25316 13.6821 6.16536 13.4536 6.16536Z" fill="white"/>
</svg>
