<svg width="16" height="11" viewBox="0 0 16 11" fill="none" xmlns="http://www.w3.org/2000/svg">
<g clip-path="url(#clip0_307_2)">
<path d="M1.5 0.5C1.10218 0.5 0.720644 0.658035 0.43934 0.93934C0.158035 1.22064 0 1.60218 0 2V3.5C0 3.63261 0.0526784 3.75979 0.146447 3.85355C0.240215 3.94732 0.367392 4 0.5 4C0.897825 4 1.27936 4.15804 1.56066 4.43934C1.84196 4.72064 2 5.10218 2 5.5C2 5.89782 1.84196 6.27936 1.56066 6.56066C1.27936 6.84196 0.897825 7 0.5 7C0.367392 7 0.240215 7.05268 0.146447 7.14645C0.0526784 7.24021 0 7.36739 0 7.5V9C0 9.39782 0.158035 9.77936 0.43934 10.0607C0.720644 10.342 1.10218 10.5 1.5 10.5H14.5C14.8978 10.5 15.2794 10.342 15.5607 10.0607C15.842 9.77936 16 9.39782 16 9V7.5C16 7.36739 15.9473 7.24021 15.8536 7.14645C15.7598 7.05268 15.6326 7 15.5 7C15.1022 7 14.7206 6.84196 14.4393 6.56066C14.158 6.27936 14 5.89782 14 5.5C14 5.10218 14.158 4.72064 14.4393 4.43934C14.7206 4.15804 15.1022 4 15.5 4C15.6326 4 15.7598 3.94732 15.8536 3.85355C15.9473 3.75979 16 3.63261 16 3.5V2C16 1.60218 15.842 1.22064 15.5607 0.93934C15.2794 0.658035 14.8978 0.5 14.5 0.5H1.5ZM1 2C1 1.86739 1.05268 1.74021 1.14645 1.64645C1.24021 1.55268 1.36739 1.5 1.5 1.5H14.5C14.6326 1.5 14.7598 1.55268 14.8536 1.64645C14.9473 1.74021 15 1.86739 15 2V3.05C14.4349 3.16476 13.9268 3.47136 13.5618 3.91787C13.1969 4.36438 12.9975 4.92332 12.9975 5.5C12.9975 6.07668 13.1969 6.63562 13.5618 7.08213C13.9268 7.52864 14.4349 7.83524 15 7.95V9C15 9.13261 14.9473 9.25979 14.8536 9.35355C14.7598 9.44732 14.6326 9.5 14.5 9.5H1.5C1.36739 9.5 1.24021 9.44732 1.14645 9.35355C1.05268 9.25979 1 9.13261 1 9V7.95C1.56514 7.83524 2.07324 7.52864 2.43819 7.08213C2.80314 6.63562 3.00251 6.07668 3.00251 5.5C3.00251 4.92332 2.80314 4.36438 2.43819 3.91787C2.07324 3.47136 1.56514 3.16476 1 3.05V2Z" fill="#592EFB"/>
</g>
<defs>
<clipPath id="clip0_307_2">
<rect width="16" height="11" fill="white"/>
</clipPath>
</defs>
</svg>
